<svg width="40" height="46" viewBox="0 0 40 46" fill="none" xmlns="http://www.w3.org/2000/svg">
<path fill-rule="evenodd" clip-rule="evenodd" d="M35.1144 1.48703C34.3069 1.48703 33.5687 1.78424 33.0034 2.27524C32.3692 0.930857 31.0014 0.000540257 29.4164 0.000540257C28.2323 0.000540257 27.1694 0.519741 26.4431 1.34291C25.7167 0.519741 24.6539 0.000540257 23.4698 0.000540257C21.9784 0.000540257 20.6794 0.824116 20.0028 2.04127C19.3262 0.823833 18.0271 2.38419e-05 16.5355 2.38419e-05C15.3514 2.38419e-05 14.2886 0.519224 13.5622 1.34239C12.8359 0.519224 11.773 2.38419e-05 10.5889 2.38419e-05C9.00383 2.38419e-05 7.63606 0.930357 7.00184 2.27476C6.43651 1.78365 5.69829 1.48637 4.89064 1.48637C3.11189 1.48637 1.66992 2.92833 1.66992 4.70709C1.66992 6.23024 2.72725 7.50644 4.14798 7.84176V7.92795H10.5889H16.5355H18.515V7.92847H23.4698H29.4164H35.1144H35.8573V7.84237C37.2779 7.50697 38.3351 6.23082 38.3351 4.70775C38.3351 2.92899 36.8932 1.48703 35.1144 1.48703Z" fill="#34C06E"/>
<path fill-rule="evenodd" clip-rule="evenodd" d="M0 22.7505V39.0838C0 42.7657 2.98477 45.7505 6.66667 45.7505H33.3333C37.0152 45.7505 40 42.7657 40 39.0838V23.8069L25.6072 18.001L0 22.7505Z" fill="#171717"/>
<circle cx="10.6693" cy="29.6671" r="1.66667" fill="#171717" stroke="#34C06E" stroke-width="1.33333"/>
<circle cx="29.3372" cy="29.6671" r="1.66667" fill="#171717" stroke="#34C06E" stroke-width="1.33333"/>
<circle cx="29.3359" cy="29.6675" r="1" fill="#171717"/>
<circle cx="10.6699" cy="29.6675" r="1" fill="#171717"/>
<path fill-rule="evenodd" clip-rule="evenodd" d="M12.631 26.5006C12.654 26.4239 12.666 26.3448 12.666 26.2639C12.666 25.5663 11.7706 25.0007 10.666 25.0007C9.56145 25.0007 8.66602 25.5663 8.66602 26.2639C8.66602 26.3448 8.67806 26.4239 8.70107 26.5006C8.87649 25.9161 9.68953 25.4741 10.666 25.4741C11.6425 25.4741 12.4555 25.9161 12.631 26.5006Z" fill="#34C06E"/>
<path fill-rule="evenodd" clip-rule="evenodd" d="M31.299 26.5002C31.322 26.4236 31.334 26.3445 31.334 26.2636C31.334 25.566 30.4386 25.0005 29.334 25.0005C28.2294 25.0005 27.334 25.566 27.334 26.2636C27.334 26.3445 27.346 26.4235 27.369 26.5002C27.5444 25.9156 28.3574 25.4736 29.334 25.4736C30.3105 25.4736 31.1236 25.9157 31.299 26.5002Z" fill="#34C06E"/>
<path fill-rule="evenodd" clip-rule="evenodd" d="M4.89064 39.7749C5.69826 39.7749 6.43645 39.4777 7.00176 38.9866C7.63595 40.3311 9.00377 41.2615 10.5889 41.2615C11.773 41.2615 12.8359 40.7423 13.5622 39.9191C14.2886 40.7423 15.3514 41.2615 16.5355 41.2615C18.0273 41.2615 19.3265 40.4375 20.003 39.2198C20.6795 40.4375 21.9788 41.2616 23.4706 41.2616C24.6547 41.2616 25.7175 40.7424 26.4439 39.9192C27.1702 40.7424 28.2331 41.2616 29.4172 41.2616C31.0022 41.2616 32.37 40.3313 33.0042 38.9869C33.5695 39.4779 34.3077 39.7751 35.1152 39.7751C36.894 39.7751 38.3359 38.3331 38.3359 36.5544C38.3359 35.0313 37.2787 33.7552 35.8581 33.4197V33.3337H35.1152H29.4172H23.4706H21.4903V33.3336H16.5355H10.5889H4.91375L4.89064 33.3335L4.86753 33.3336H4.14798V33.4195C2.72725 33.7549 1.66992 35.0311 1.66992 36.5542C1.66992 38.333 3.11189 39.7749 4.89064 39.7749Z" fill="#34C06E"/>
<circle cx="19.8379" cy="33.167" r="3.5" fill="#171717"/>
<path fill-rule="evenodd" clip-rule="evenodd" d="M40 23.7234V12.3334C40 8.65152 37.0152 5.66675 33.3333 5.66675H6.66667C2.98477 5.66675 0 8.65152 0 12.3334V22.667L25.6072 17.9174L40 23.7234Z" fill="#34C06E"/>
</svg>
