<?xml version="1.0" standalone="no"?>
<!DOCTYPE svg PUBLIC "-//W3C//DTD SVG 20010904//EN"
 "http://www.w3.org/TR/2001/REC-SVG-20010904/DTD/svg10.dtd">
<svg version="1.0" xmlns="http://www.w3.org/2000/svg"
 width="512.000000pt" height="512.000000pt" viewBox="0 0 512.000000 512.000000"
 preserveAspectRatio="xMidYMid meet">

<g transform="translate(0.000000,512.000000) scale(0.100000,-0.100000)"
fill="#000000" stroke="none">
<path d="M2390 4984 c-420 -40 -773 -162 -1107 -383 -859 -570 -1232 -1653
-908 -2637 215 -655 731 -1191 1380 -1434 389 -147 844 -182 1260 -99 936 187
1672 955 1820 1899 22 144 31 439 16 581 -46 443 -220 869 -501 1224 -83 105
-254 274 -360 356 -328 255 -695 413 -1100 474 -103 15 -412 27 -500 19z
m1710 -1934 l0 -60 -59 0 -60 0 14 -32 c22 -53 28 -121 15 -169 -17 -61 -83
-126 -138 -135 -23 -4 -42 -8 -42 -10 0 -2 37 -52 83 -110 45 -59 82 -110 81
-113 -1 -8 -107 -71 -119 -71 -14 0 -255 374 -255 397 0 30 28 61 61 68 27 6
35 2 60 -24 30 -34 45 -37 83 -20 48 22 58 118 20 190 l-15 29 -154 0 -155 0
0 -310 0 -310 -75 0 -75 0 0 310 0 310 -80 0 -80 0 0 -310 0 -310 -75 0 -75 0
0 80 0 81 -32 -18 c-44 -23 -178 -22 -233 1 -103 44 -154 152 -110 236 l16 30
-76 0 -75 0 0 55 0 55 215 0 215 0 0 -55 0 -55 -37 0 c-85 0 -139 -56 -114
-118 22 -53 110 -68 189 -32 l42 19 0 171 0 170 -305 0 -305 0 0 -310 0 -310
-75 0 -75 0 0 310 0 310 -80 0 -80 0 0 -310 0 -310 -70 0 -70 0 0 65 c0 36 -1
65 -2 65 -2 0 -21 -7 -43 -15 -53 -19 -99 -19 -166 1 -105 31 -169 132 -156
247 17 137 165 218 310 169 l57 -19 0 54 0 53 -240 0 -240 0 -1 -112 c-1 -62
-3 -135 -5 -163 -1 -27 -3 -116 -3 -197 l-1 -148 -70 0 -70 0 0 165 0 165 -95
0 -96 0 7 -49 c6 -44 4 -50 -16 -61 -34 -18 -107 -7 -136 21 -52 49 -53 144 0
183 24 19 44 21 182 24 l154 4 0 84 0 84 -207 2 -208 3 -3 44 c-2 24 -1 50 2
57 5 12 247 14 1576 14 l1570 0 0 -60z"/>
<path d="M1823 2781 c-57 -36 -57 -137 0 -172 35 -21 97 -25 128 -9 28 16 49
63 49 113 0 38 -4 48 -27 63 -42 27 -111 29 -150 5z"/>
</g>
</svg>
